<svg width="20" height="16" viewBox="0 0 20 16" fill="none" xmlns="http://www.w3.org/2000/svg">
<g clip-path="url(#clip0_1173_79)">
<path d="M19.9419 7.73303C19.9169 7.66636 19.2086 6.09969 17.6419 4.52469C15.5502 2.44136 12.9086 1.33303 10.0002 1.33303C9.38601 1.33191 8.77277 1.38208 8.1669 1.48303C8.04983 1.50496 7.94065 1.55748 7.85045 1.63525C7.76024 1.71303 7.69222 1.81328 7.65329 1.92584C7.61436 2.03841 7.6059 2.15926 7.62878 2.27615C7.65166 2.39303 7.70506 2.50178 7.78356 2.59136L16.2252 11.8747C16.2877 11.9429 16.3636 11.9974 16.4483 12.0347C16.5329 12.0721 16.6244 12.0913 16.7169 12.0914C16.8816 12.0892 17.0405 12.0303 17.1669 11.9247C19.0669 10.2164 19.9086 8.34969 19.9419 8.27469C19.9788 8.18917 19.9979 8.09701 19.9979 8.00386C19.9979 7.91071 19.9788 7.81855 19.9419 7.73303V7.73303Z" fill="#C1C7CD"/>
<path d="M3.82458 0.216762C3.70414 0.0907551 3.53913 0.0169339 3.36492 0.0111142C3.1907 0.00529458 3.02114 0.0679397 2.89256 0.185627C2.76397 0.303315 2.68659 0.466684 2.677 0.640731C2.66741 0.814778 2.72637 0.985659 2.84125 1.11676L4.44125 2.8751C1.41625 4.73343 0.116249 7.6001 0.0579159 7.73343C0.0209973 7.81895 0.00195312 7.91111 0.00195312 8.00426C0.00195313 8.09741 0.0209973 8.18958 0.0579159 8.2751C0.0829159 8.33343 0.791249 9.9001 2.35792 11.4751C4.44958 13.5584 7.09125 14.6668 9.99958 14.6668C11.4941 14.6769 12.9739 14.3702 14.3413 13.7668L16.1746 15.7834C16.237 15.8517 16.313 15.9062 16.3976 15.9435C16.4823 15.9808 16.5738 16.0001 16.6663 16.0001C16.8325 15.9985 16.9925 15.9362 17.1162 15.8251C17.1818 15.7666 17.2349 15.6956 17.2726 15.6162C17.3103 15.5369 17.3317 15.4508 17.3356 15.363C17.3394 15.2753 17.3257 15.1876 17.2952 15.1053C17.2647 15.0229 17.218 14.9475 17.1579 14.8834L3.82458 0.216762ZM9.99958 11.0001C9.45135 10.9997 8.9137 10.8492 8.44503 10.5647C7.97636 10.2803 7.59459 9.87283 7.3412 9.38667C7.08782 8.90051 6.97249 8.3542 7.00776 7.80711C7.04303 7.26001 7.22754 6.73303 7.54125 6.28343L11.4746 10.6084C11.0258 10.8661 10.5171 11.0012 9.99958 11.0001V11.0001Z" fill="#C1C7CD"/>
</g>
<defs>
<clipPath id="clip0_1173_79">
<rect width="20" height="16" fill="white"/>
</clipPath>
</defs>
</svg>
