<svg width="20" height="14" viewBox="0 0 20 14" fill="none" xmlns="http://www.w3.org/2000/svg">
<g clip-path="url(#clip0_1173_76)">
<path d="M19.9417 6.4C19.9167 6.33333 19.2084 4.76667 17.6417 3.19167C15.55 1.10833 12.9084 0 10 0C7.09171 0 4.45005 1.10833 2.35838 3.19167C0.791713 4.76667 0.0833797 6.33333 0.0583797 6.4C0.0211739 6.48398 0.00195312 6.57481 0.00195312 6.66667C0.00195312 6.75852 0.0211739 6.84935 0.0583797 6.93333C0.0833797 7 0.791713 8.56667 2.35838 10.1417C4.45005 12.225 7.09171 13.3333 10 13.3333C12.9084 13.3333 15.55 12.225 17.6417 10.1417C19.2084 8.56667 19.9167 7 19.9417 6.93333C19.9789 6.84935 19.9981 6.75852 19.9981 6.66667C19.9981 6.57481 19.9789 6.48398 19.9417 6.4V6.4ZM10 3.66667C10.5934 3.66667 11.1734 3.84261 11.6668 4.17226C12.1601 4.5019 12.5446 4.97044 12.7717 5.51862C12.9987 6.06679 13.0582 6.67 12.9424 7.25194C12.8266 7.83388 12.5409 8.36843 12.1214 8.78799C11.7018 9.20754 11.1673 9.49327 10.5853 9.60902C10.0034 9.72478 9.40017 9.66537 8.852 9.43831C8.30382 9.21124 7.83528 8.82673 7.50564 8.33338C7.17599 7.84003 7.00005 7.26001 7.00005 6.66667C7.00005 5.87102 7.31612 5.10796 7.87873 4.54535C8.44134 3.98274 9.2044 3.66667 10 3.66667V3.66667Z" fill="#C1C7CD"/>
</g>
<defs>
<clipPath id="clip0_1173_76">
<rect width="20" height="13.3333" fill="white"/>
</clipPath>
</defs>
</svg>
