<svg width="24" height="24" viewBox="0 0 24 24" fill="none" xmlns="http://www.w3.org/2000/svg">
<path fill-rule="evenodd" clip-rule="evenodd" d="M7.86956 2.12756C6.24168 2.20101 4.83071 2.59903 3.69139 3.73354C2.54809 4.87401 2.15505 6.29041 2.08142 7.90136C2.03565 8.90684 1.76799 16.503 2.54412 18.4952C3.06751 19.8391 4.09837 20.8724 5.45461 21.3974C6.08745 21.6436 6.80985 21.8103 7.86957 21.859C16.7304 22.26 20.015 22.0416 21.4001 18.4952C21.6458 17.8639 21.815 17.1423 21.8618 16.0852C22.2667 7.20165 21.7961 5.27609 20.2518 3.73359C19.0269 2.51173 17.5861 1.67996 7.86949 2.12761M7.95109 20.0723C6.98092 20.0286 6.45455 19.8668 6.1033 19.7309C5.2197 19.3874 4.55602 18.7264 4.21472 17.8479C3.62366 16.3343 3.81969 9.14506 3.87242 7.98176C3.92417 6.84228 4.15501 5.80107 4.959 4.99709C5.95404 4.00451 7.23963 3.51815 15.993 3.9132C17.1353 3.96481 18.1791 4.19509 18.9851 4.99709C19.9801 5.98966 20.4737 7.28497 20.0717 16.0048C20.0279 16.9725 19.8657 17.4976 19.7294 17.848C18.8289 20.1557 16.7572 20.4763 7.95107 20.0724M16.0895 6.69446C16.0895 7.35155 16.6238 7.88555 17.2835 7.88555C17.9433 7.88555 18.4786 7.35155 18.4786 6.69446C18.4786 6.03738 17.9432 5.50337 17.2835 5.50337C16.6238 5.50337 16.0895 6.03738 16.0895 6.69446M6.8625 11.9928C6.8625 14.8078 9.15009 17.0897 11.972 17.0897C14.794 17.0897 17.0815 14.8078 17.0815 11.9928C17.0815 9.17788 14.794 6.89695 11.972 6.89695C9.15009 6.89695 6.8625 9.17788 6.8625 11.9928M8.65556 11.9928C8.65556 10.1665 10.1402 8.68457 11.972 8.68457C13.8039 8.68457 15.2885 10.1665 15.2885 11.9928C15.2885 13.8201 13.8039 15.3021 11.972 15.3021C10.1402 15.3021 8.65556 13.8201 8.65556 11.9928" fill="url(#paint0_linear)"/>
<defs>
<linearGradient id="paint0_linear" x1="1.99991" y1="22.0049" x2="21.9999" y2="22.0049" gradientUnits="userSpaceOnUse">
<stop stop-color="#667EEA"/>
<stop offset="1" stop-color="#764BA2"/>
</linearGradient>
</defs>
</svg>
