<svg width="340" height="348" viewBox="0 0 340 348" fill="none" xmlns="http://www.w3.org/2000/svg">
<circle cx="136" cy="209" r="136" fill="#EBF3FF"/>
<g filter="url(#filter0_d)">
<rect x="79" y="41" width="218" height="258" rx="8" fill="white"/>
<rect x="111" y="73" width="154" height="54" rx="8" fill="#F4F5F7"/>
<rect x="111" y="139" width="154" height="54" rx="8" fill="#F4F5F7"/>
<rect x="111" y="217" width="154" height="50" rx="8" fill="#006CD0"/>
<path d="M156.163 249.14C155.19 249.14 154.31 248.973 153.523 248.64C152.75 248.307 152.136 247.827 151.683 247.2C151.23 246.573 150.996 245.833 150.983 244.98H153.983C154.023 245.553 154.223 246.007 154.583 246.34C154.956 246.673 155.463 246.84 156.103 246.84C156.756 246.84 157.27 246.687 157.643 246.38C158.016 246.06 158.203 245.647 158.203 245.14C158.203 244.727 158.076 244.387 157.823 244.12C157.57 243.853 157.25 243.647 156.863 243.5C156.49 243.34 155.97 243.167 155.303 242.98C154.396 242.713 153.656 242.453 153.083 242.2C152.523 241.933 152.036 241.54 151.623 241.02C151.223 240.487 151.023 239.78 151.023 238.9C151.023 238.073 151.23 237.353 151.643 236.74C152.056 236.127 152.636 235.66 153.383 235.34C154.13 235.007 154.983 234.84 155.943 234.84C157.383 234.84 158.55 235.193 159.443 235.9C160.35 236.593 160.85 237.567 160.943 238.82H157.863C157.836 238.34 157.63 237.947 157.243 237.64C156.87 237.32 156.37 237.16 155.743 237.16C155.196 237.16 154.756 237.3 154.423 237.58C154.103 237.86 153.943 238.267 153.943 238.8C153.943 239.173 154.063 239.487 154.303 239.74C154.556 239.98 154.863 240.18 155.223 240.34C155.596 240.487 156.116 240.66 156.783 240.86C157.69 241.127 158.43 241.393 159.003 241.66C159.576 241.927 160.07 242.327 160.483 242.86C160.896 243.393 161.103 244.093 161.103 244.96C161.103 245.707 160.91 246.4 160.523 247.04C160.136 247.68 159.57 248.193 158.823 248.58C158.076 248.953 157.19 249.14 156.163 249.14ZM164.95 236.6C164.457 236.6 164.044 236.447 163.71 236.14C163.39 235.82 163.23 235.427 163.23 234.96C163.23 234.493 163.39 234.107 163.71 233.8C164.044 233.48 164.457 233.32 164.95 233.32C165.444 233.32 165.85 233.48 166.17 233.8C166.504 234.107 166.67 234.493 166.67 234.96C166.67 235.427 166.504 235.82 166.17 236.14C165.85 236.447 165.444 236.6 164.95 236.6ZM166.33 237.92V249H163.53V237.92H166.33ZM173.437 237.74C174.263 237.74 174.99 237.907 175.617 238.24C176.243 238.56 176.737 238.98 177.097 239.5V237.92H179.917V249.08C179.917 250.107 179.71 251.02 179.297 251.82C178.883 252.633 178.263 253.273 177.437 253.74C176.61 254.22 175.61 254.46 174.437 254.46C172.863 254.46 171.57 254.093 170.557 253.36C169.557 252.627 168.99 251.627 168.857 250.36H171.637C171.783 250.867 172.097 251.267 172.577 251.56C173.07 251.867 173.663 252.02 174.357 252.02C175.17 252.02 175.83 251.773 176.337 251.28C176.843 250.8 177.097 250.067 177.097 249.08V247.36C176.737 247.88 176.237 248.313 175.597 248.66C174.97 249.007 174.25 249.18 173.437 249.18C172.503 249.18 171.65 248.94 170.877 248.46C170.103 247.98 169.49 247.307 169.037 246.44C168.597 245.56 168.377 244.553 168.377 243.42C168.377 242.3 168.597 241.307 169.037 240.44C169.49 239.573 170.097 238.907 170.857 238.44C171.63 237.973 172.49 237.74 173.437 237.74ZM177.097 243.46C177.097 242.78 176.963 242.2 176.697 241.72C176.43 241.227 176.07 240.853 175.617 240.6C175.163 240.333 174.677 240.2 174.157 240.2C173.637 240.2 173.157 240.327 172.717 240.58C172.277 240.833 171.917 241.207 171.637 241.7C171.37 242.18 171.237 242.753 171.237 243.42C171.237 244.087 171.37 244.673 171.637 245.18C171.917 245.673 172.277 246.053 172.717 246.32C173.17 246.587 173.65 246.72 174.157 246.72C174.677 246.72 175.163 246.593 175.617 246.34C176.07 246.073 176.43 245.7 176.697 245.22C176.963 244.727 177.097 244.14 177.097 243.46ZM188.791 237.76C190.111 237.76 191.178 238.18 191.991 239.02C192.805 239.847 193.211 241.007 193.211 242.5V249H190.411V242.88C190.411 242 190.191 241.327 189.751 240.86C189.311 240.38 188.711 240.14 187.951 240.14C187.178 240.14 186.565 240.38 186.111 240.86C185.671 241.327 185.451 242 185.451 242.88V249H182.651V237.92H185.451V239.3C185.825 238.82 186.298 238.447 186.871 238.18C187.458 237.9 188.098 237.76 188.791 237.76ZM211.1 237.92V249H208.28V247.6C207.92 248.08 207.446 248.46 206.86 248.74C206.286 249.007 205.66 249.14 204.98 249.14C204.113 249.14 203.346 248.96 202.68 248.6C202.013 248.227 201.486 247.687 201.1 246.98C200.726 246.26 200.54 245.407 200.54 244.42V237.92H203.34V244.02C203.34 244.9 203.56 245.58 204 246.06C204.44 246.527 205.04 246.76 205.8 246.76C206.573 246.76 207.18 246.527 207.62 246.06C208.06 245.58 208.28 244.9 208.28 244.02V237.92H211.1ZM216.662 239.52C217.022 239.013 217.516 238.593 218.142 238.26C218.782 237.913 219.509 237.74 220.322 237.74C221.269 237.74 222.122 237.973 222.882 238.44C223.656 238.907 224.262 239.573 224.702 240.44C225.156 241.293 225.382 242.287 225.382 243.42C225.382 244.553 225.156 245.56 224.702 246.44C224.262 247.307 223.656 247.98 222.882 248.46C222.122 248.94 221.269 249.18 220.322 249.18C219.509 249.18 218.789 249.013 218.162 248.68C217.549 248.347 217.049 247.927 216.662 247.42V254.28H213.862V237.92H216.662V239.52ZM222.522 243.42C222.522 242.753 222.382 242.18 222.102 241.7C221.836 241.207 221.476 240.833 221.022 240.58C220.582 240.327 220.102 240.2 219.582 240.2C219.076 240.2 218.596 240.333 218.142 240.6C217.702 240.853 217.342 241.227 217.062 241.72C216.796 242.213 216.662 242.793 216.662 243.46C216.662 244.127 216.796 244.707 217.062 245.2C217.342 245.693 217.702 246.073 218.142 246.34C218.596 246.593 219.076 246.72 219.582 246.72C220.102 246.72 220.582 246.587 221.022 246.32C221.476 246.053 221.836 245.673 222.102 245.18C222.382 244.687 222.522 244.1 222.522 243.42Z" fill="white"/>
</g>
<defs>
<filter id="filter0_d" x="32" y="0" width="308" height="348" filterUnits="userSpaceOnUse" color-interpolation-filters="sRGB">
<feFlood flood-opacity="0" result="BackgroundImageFix"/>
<feColorMatrix in="SourceAlpha" type="matrix" values="0 0 0 0 0 0 0 0 0 0 0 0 0 0 0 0 0 0 127 0"/>
<feOffset dx="-2" dy="4"/>
<feGaussianBlur stdDeviation="22.5"/>
<feColorMatrix type="matrix" values="0 0 0 0 0 0 0 0 0 0 0 0 0 0 0 0 0 0 0.13 0"/>
<feBlend mode="normal" in2="BackgroundImageFix" result="effect1_dropShadow"/>
<feBlend mode="normal" in="SourceGraphic" in2="effect1_dropShadow" result="shape"/>
</filter>
</defs>
</svg>
